# xmcd
#
# Track frame offsets:
# 150
# 23652
# 43696
# 74684
# 97785
# 120797
# 152120
#
# Disc length: 2638 seconds
#
#
# Revision: 0
# Processed by: cddbd v1.4PL0 Copyright (c) Steve Scherf et al.
# Submitted via: FreeRIP 2.40 
#
DISCID=4c0a4c07
DTITLE=Frank Harrison Group - Heart and Soul
DYEAR=2000
DGENRE=Blues
TTITLE0=Wantin' All Your Love
TTITLE1=Can't Take It No More
TTITLE2=Constant Love
TTITLE3=Forever Young
TTITLE4=Heart and Soul
TTITLE5=The Blues Is Everywhere (For SRV)
TTITLE6=Where'd You Get Those Blues
EXTD=
EXTT0=
EXTT1=
EXTT2=
EXTT3=
EXTT4=
EXTT5=
EXTT6=
PLAYORDER=
